<svg xmlns="http://www.w3.org/2000/svg" viewBox="0 0 110 71" fill="none"><path d="M107.62 14.12C103.90 17.93 100.17 21.72 96.43 25.51C95.73 26.22 95.04 26.93 94.34 27.64L94.34 27.64C94.14 27.84 93.93 28.04 93.68 28.27C93.55 28.39 93.42 28.52 93.27 28.66L92.42 29.47V28.30C92.42 27.66 92.42 27.04 92.42 26.44C92.42 25.29 92.42 24.20 92.42 23.11L92.42 23.11C92.42 22.83 92.37 22.65 92.31 22.57C92.29 22.53 92.26 22.51 92.23 22.49C92.19 22.47 92.12 22.45 92.01 22.46C91.90 22.46 91.85 22.48 91.83 22.49C91.81 22.51 91.79 22.52 91.77 22.56C91.72 22.65 91.69 22.83 91.69 23.11C91.69 23.38 91.69 23.66 91.69 23.93C91.70 26.00 91.71 28.07 91.68 30.14L91.18 30.14L91.68 30.14C91.68 30.54 91.77 30.68 91.84 30.74C91.91 30.81 92.09 30.89 92.48 30.88L107.62 14.12ZM107.62 14.12C107.91 13.82 108.11 13.69 108.26 13.66C108.35 13.65 108.47 13.65 108.65 13.77V14.17L93.74 29.29L92.90 30.14H94.09H94.10H94.11H94.12H94.13H94.14H94.15H94.16H94.17H94.18H94.19H94.20H94.21H94.22H94.23H94.24H94.25H94.26H94.27H94.28H94.29H94.30H94.31H94.32H94.33H94.34H94.35H94.36H94.37H94.38H94.39H94.40H94.41H94.42H94.43H94.44H94.45H94.46H94.47H94.48H94.49H94.49H94.50H94.51H94.52H94.53H94.54H94.55H94.56H94.57H94.58H94.59H94.60H94.61H94.62H94.63H94.64H94.65H94.66H94.67H94.68H94.69H94.70H94.71H94.72H94.73H94.74H94.74H94.75H94.76H94.77H94.78H94.79H94.80H94.81H94.82H94.83H94.84H94.85H94.86H94.87H94.88H94.89H94.90H94.91H94.91H94.92H94.93H94.94H94.95H94.96H94.97H94.98H94.99H95.00H95.01H95.02H95.03H95.04H95.05H95.06H95.06H95.07H95.08H95.09H95.10H95.11H95.12H95.13H95.14H95.15H95.16H95.17H95.18H95.18H95.19H95.20H95.21H95.22H95.23H95.24H95.25H95.26H95.27H95.28H95.29H95.29H95.30H95.31H95.32H95.33H95.34H95.35H95.36H95.37H95.38H95.39H95.4H95.40H95.41H95.42H95.43H95.44H95.45H95.46H95.47H95.48H95.49H95.49H95.50H95.51H95.52H95.53H95.54H95.55H95.56H95.57H95.58H95.58H95.59H95.60H95.61H95.62H95.63H95.64H95.65H95.66H95.67H95.67H95.68H95.69H95.70H95.71H95.72H95.73H95.74H95.75H95.75H95.76H95.77H95.78H95.79H95.80H95.81H95.82H95.82H95.83H95.84H95.85H95.86H95.87H95.88H95.89H95.90H95.90H95.91H95.92H95.93H95.94H95.95H95.96H95.97H95.97H95.98H95.99H96.00H96.01H96.02H96.03H96.04H96.04H96.05H96.06H96.07H96.08H96.09H96.10H96.11H96.11H96.12H96.13H96.14H96.15H96.16H96.17H96.17H96.18H96.19H96.20H96.21H96.22H96.23H96.23H96.24H96.25H96.26H96.27H96.28H96.29H96.3H96.30H96.31H96.32H96.33H96.34H96.35H96.36H96.36H96.37H96.38H96.39H96.40H96.41H96.41H96.42H96.43H96.44H96.45H96.46H96.47H96.47H96.48H96.49H96.50H96.51H96.52H96.53H96.53H96.54H96.55H96.56H96.57H96.58H96.58H96.59H96.60H96.61H96.62H96.63H96.64H96.64H96.65H96.66H96.67H96.68H96.69H96.69H96.70H96.71H96.72H96.73H96.74H96.75H96.75H96.76H96.77H96.78H96.79H96.80H96.80H96.81H96.82H96.83H96.84H96.85H96.85H96.86H96.87H96.88H96.89H96.90H96.90H96.91H96.92H96.93H96.94H96.95H96.95H96.96H96.97H96.98H96.99H97.00H97.00H97.01H97.02H97.03H97.04H97.05H97.05H97.06H97.07H97.08H97.09H97.09H97.10H97.11H97.12H97.13H97.14H97.14H97.15H97.16H97.17H97.18H97.19H97.19H97.20H97.21H97.22H97.23H97.24H97.24H97.25H97.26H97.27H97.28H97.28H97.29H97.30H97.31H97.32H97.33H97.33H97.34H97.35H97.36H97.37H97.37H97.38H97.39H97.40H97.41H97.42H97.42H97.43H97.44H97.45H97.46H97.46H97.47H97.48H97.49H97.50H97.51H97.51H97.52H97.53H97.54H97.55H97.55H97.56H97.57H97.58H97.59H97.60H97.60H97.61H97.62H97.63H97.64H97.64H97.65H97.66H97.67H97.68H97.68H97.69H97.70H97.71H97.72H97.73H97.73H97.74H97.75H97.76H97.77H97.77H97.78H97.79H97.80H97.81H97.81H97.82H97.83H97.84H97.85H97.86H97.86H97.87H97.88H97.89H97.90H97.90H97.91H97.92H97.93H97.94H97.94H97.95H97.96H97.97H97.98H97.98H97.99H98.00H98.01H98.02H98.02H98.03H98.04H98.05H98.06H98.07H98.07H98.08H98.09H98.10H98.11H98.11H98.12H98.13H98.14H98.15H98.15H98.16H98.17H98.18H98.19H98.19H98.20H98.21H98.22H98.23H98.23H98.24H98.25H98.26H98.27H98.27H98.28H98.29H98.30H98.31H98.31H98.32H98.33H98.34H98.35H98.36H98.36H98.37H98.38H98.39H98.40H98.40H98.41H98.42H98.43H98.44H98.44H98.45H98.46H98.47H98.48H98.48H98.49H98.50H98.51H98.52H98.52H98.53H98.54C98.65 30.14 98.75 30.13 98.84 30.13C98.86 30.13 98.87 30.12 98.88 30.12C98.96 30.12 99.03 30.11 99.10 30.11C99.26 30.11 99.35 30.12 99.39 30.14C99.50 30.19 99.67 30.30 99.80 30.41C99.82 30.43 99.83 30.45 99.85 30.46C99.82 30.52 99.77 30.59 99.71 30.67C99.66 30.73 99.61 30.77 99.57 30.80C99.54 30.82 99.53 30.83 99.53 30.83C98.93 30.91 98.34 30.90 97.70 30.89C97.46 30.88 97.21 30.88 96.95 30.88C96.52 30.88 96.08 30.88 95.65 30.88C94.59 30.87 93.53 30.87 92.48 30.88L107.62 14.12ZM99.90 30.33L99.90 30.33L99.90 30.33Z" stroke="#000"></path><path d="M17.10 22.66C17.04 22.71 16.99 22.76 16.94 22.81C16.79 22.96 16.77 23.02 16.76 23.02C16.76 23.02 16.76 23.02 16.76 23.02C16.69 23.86 16.70 24.70 16.71 25.57C16.72 25.91 16.72 26.25 16.72 26.59V26.60V26.60V26.60V26.61V26.61V26.61V26.61V26.62V26.62V26.62V26.63V26.63V26.63V26.64V26.64V26.64V26.64V26.65V26.65V26.65V26.66V26.66V26.66V26.67V26.67V26.67V26.67V26.68V26.68V26.68V26.69V26.69V26.69V26.69V26.70V26.70V26.70V26.71V26.71V26.71V26.72V26.72V26.72V26.72V26.73V26.73V26.73V26.74V26.74V26.74V26.75V26.75V26.75V26.75V26.76V26.76V26.76V26.77V26.77V26.77V26.77V26.78V26.78V26.78V26.79V26.79V26.79V26.80V26.80V26.80V26.80V26.81V26.81V26.81V26.82V26.82V26.82V26.83V26.83V26.83V26.83V26.84V26.84V26.84V26.85V26.85V26.85V26.86V26.86V26.86V26.86V26.87V26.87V26.87V26.88V26.88V26.88V26.88V26.89V26.89V26.89V26.90V26.90V26.90V26.91V26.91V26.91V26.91V26.92V26.92V26.92V26.93V26.93V26.93V26.94V26.94V26.94V26.94V26.95V26.95V26.95V26.96V26.96V26.96V26.96V26.97V26.97V26.97V26.98V26.98V26.98V26.99V26.99V26.99V26.99V27.00V27.00V27.00V27.01V27.01V27.01V27.02V27.02V27.02V27.02V27.03V27.03V27.03V27.04V27.04V27.04V27.04V27.05V27.05V27.05V27.06V27.06V27.06V27.07V27.07V27.07V27.07V27.08V27.08V27.08V27.09V27.09V27.09V27.10V27.10V27.10V27.10V27.11V27.11V27.11V27.12V27.12V27.12V27.12V27.13V27.13V27.13V27.14V27.14V27.14V27.15V27.15V27.15V27.15V27.16V27.16V27.16V27.17V27.17V27.17V27.18V27.18V27.18V27.18V27.19V27.19V27.19V27.20V27.20V27.20V27.20V27.21V27.21V27.21V27.22V27.22V27.22V27.23V27.23V27.23V27.23V27.24V27.24V27.24V27.25V27.25V27.25V27.26V27.26V27.26V27.26V27.27V27.27V27.27V27.28V27.28V27.28V27.28V27.29V27.29V27.29V27.30V27.30V27.30V27.31V27.31V27.31V27.31V27.32V27.32V27.32V27.33V27.33V27.33V27.34V27.34V27.34V27.34V27.35V27.35V27.35V27.36V27.36V27.36V27.36V27.37V27.37V27.37V27.38V27.38V27.38V27.39V27.39V27.39V27.39V27.40V27.40V27.40V27.41V27.41V27.41V27.42V27.42V27.42V27.42V27.43V27.43V27.43V27.44V27.44V27.44V27.44V27.45V27.45V27.45V27.46V27.46V27.46V27.47V27.47V27.47V27.47V27.48V27.48V27.48V27.49V27.49V27.49V27.50V27.50V27.50V27.50V27.51V27.51V27.51V27.52V27.52V27.52V27.53V27.53V27.53V27.53V27.54V27.54V27.54V27.55V27.55V27.55V27.55V27.56V27.56V27.56V27.57V27.57V27.57V27.58V27.58V27.58V27.58V27.59V27.59V27.59V27.60V27.60V27.60V27.61V27.61V27.61V27.61V27.62V27.62V27.62V27.63V27.63V27.63V27.63V27.64V27.64V27.64V27.65V27.65V27.65V27.66V27.66V27.66V27.66V27.67V27.67V27.67V27.68V27.68V27.68V27.69V27.69V27.69V27.69V27.70V27.70V27.70V27.71V27.71V27.71V27.71V27.72V27.72V27.72V27.73V27.73V27.73V27.74V27.74V27.74V27.74V27.75V27.75V27.75V27.76V27.76V27.76V27.77V27.77V27.77V27.77V27.78V27.78V27.78V27.79V27.79V27.79V27.79V27.80V27.80V27.80V27.81V27.81V27.81V27.82V27.82V27.82V27.82V27.83V27.83V27.83V27.84V27.84V27.84V27.85V27.85V27.85V27.85V27.86V27.86V27.86V27.87V27.87V27.87V27.87V27.88V27.88V27.88V27.89V27.89V27.89V27.90V27.90V27.90V27.90V27.91V27.91V27.91V27.92V27.92V27.92V27.93V27.93V27.93V27.93V27.94V27.94V27.94V27.95V27.95V27.95V27.95V27.96V27.96V27.96V27.97V27.97V27.97V27.98V27.98V27.98V27.98V27.99V27.99V27.99V28.00V28.00V28.00V28.01V28.01V28.01V28.01V28.02V28.02V28.02V28.03V28.03V28.03V28.03V28.04V28.04V28.04V28.05V28.05V28.05V28.06V28.06V28.06V28.06V28.07V28.07V28.07V28.08V28.08V28.08V28.09V28.09V28.09V28.09V28.10V28.10V28.10V28.11V28.11V28.11V28.45L16.40 28.58C16.35 28.60 16.29 28.62 16.24 28.64L16.24 28.64C16.19 28.66 16.14 28.68 16.09 28.69L15.75 28.83L15.52 28.54C15.43 28.42 15.34 28.31 15.25 28.20C15.08 27.98 14.93 27.78 14.75 27.60C13.23 26.05 11.71 24.50 10.19 22.96C7.30 20.02 4.41 17.08 1.53 14.13L17.10 22.66ZM17.10 22.66C17.16 22.71 17.21 22.76 17.26 22.81C17.33 22.88 17.37 22.93 17.40 22.97C17.41 22.98 17.41 22.99 17.41 22.99C17.46 24.74 17.46 26.47 17.45 28.22C17.45 28.92 17.45 29.61 17.45 30.31M17.10 22.66L17.45 30.31M17.45 30.31C17.45 30.61 17.37 30.72 17.32 30.76C17.25 30.82 17.11 30.88 16.81 30.88H16.79H16.78H16.77H16.75H16.74H16.72H16.71H16.70H16.68H16.67H16.66H16.64H16.63H16.62H16.60H16.59H16.58H16.56H16.55H16.54H16.52H16.51H16.49H16.48H16.47H16.45H16.44H16.43H16.41H16.40H16.39H16.37H16.36H16.35H16.33H16.32H16.31H16.29H16.28H16.26H16.25H16.24H16.22H16.21H16.20H16.18H16.17H16.16H16.14H16.13H16.12H16.10H16.09H16.08H16.06H16.05H16.03H16.02H16.01H15.99H15.98H15.97H15.95H15.94H15.93H15.91H15.90H15.89H15.87H15.86H15.85H15.83H15.82H15.80H15.79H15.78H15.76H15.75H15.74H15.72H15.71H15.70H15.68H15.67H15.66H15.64H15.63H15.62H15.60H15.59H15.57H15.56H15.55H15.53H15.52H15.51H15.49H15.48H15.47H15.45H15.44H15.43H15.41H15.40H15.39H15.37H15.36H15.34H15.33H15.32H15.30H15.29H15.28H15.26H15.25H15.24H15.22H15.21H15.20H15.18H15.17H15.16H15.14H15.13H15.11H15.10H15.09H15.07H15.06H15.05H15.03H15.02H15.01H14.99H14.98H14.97H14.95H14.94H14.93H14.91H14.90H14.88H14.87H14.86H14.84H14.83H14.82H14.80H14.79H14.78H14.76H14.75H14.74H14.72H14.71H14.70H14.68H14.67H14.65H14.64H14.63H14.61H14.60H14.59H14.57H14.56H14.55H14.53H14.52H14.51H14.49H14.48H14.47H14.45H14.44H14.42H14.41H14.40H14.38H14.37H14.36H14.34H14.33H14.32H14.30H14.29H14.28H14.26H14.25H14.24H14.22H14.21H14.19H14.18H14.17H14.15H14.14H14.13H14.11H14.10H14.09H14.07H14.06H14.05H14.03H14.02H14.01H13.99H13.98H13.96H13.95H13.94H13.92H13.91H13.90H13.88H13.87H13.86H13.84H13.83H13.82H13.80H13.79H13.78H13.76H13.75H13.73H13.72H13.71H13.69H13.68H13.67H13.65H13.64H13.63H13.61H13.60H13.59H13.57H13.56H13.55H13.53H13.52H13.50H13.49H13.48H13.46H13.45H13.44H13.42H13.41H13.40H13.38H13.37H13.36H13.34H13.33H13.32H13.30H13.29H13.27H13.26H13.25H13.23H13.22H13.21H13.19H13.18H13.17H13.15H13.14H13.13H13.11H13.10H13.09H13.07H13.06H13.04H13.03H13.02H13.00H12.99H12.98H12.96H12.95H12.94H12.92H12.91H12.90H12.88H12.87H12.85H12.84H12.83H12.81H12.80H12.79H12.77H12.76H12.75H12.73H12.72H12.71H12.69H12.68H12.67H12.65H12.64H12.62H12.61H12.60H12.58H12.57H12.56H12.54H12.53H12.52H12.50H12.49H12.48H12.46H12.45H12.44H12.42H12.41H12.39H12.38H12.37H12.35H12.34H12.33H12.31H12.30H12.29H12.27H12.26H12.25H12.23H12.22H12.21H12.19H12.18H12.16H12.15H12.14H12.12H12.11H12.10H12.08H12.07H12.06H12.04H12.03H12.02H12.00H11.99H11.98H11.96H11.95H11.93H11.92H11.91H11.89H11.88H11.87H11.85H11.84H11.83H11.81H11.80H11.79H11.77H11.76H11.75H11.73H11.72H11.70H11.69H11.68H11.66H11.65H11.64H11.62H11.61H11.60H11.58H11.57H11.56H11.54H11.53H11.52H11.50H11.49H11.47H11.46H11.45H11.43H11.42H11.41H11.39H11.38H11.37H11.35H11.34H11.33H11.31H11.30H11.29H11.27H11.26H11.24H11.23H11.22H11.20H11.19H11.18H11.16H11.15H11.14H11.12H11.11H11.10H11.08H11.07H11.06H11.04H11.03H11.01H11.00H10.99H10.97H10.96H10.95H10.93H10.92H10.91H10.89H10.88H10.87H10.85H10.84H10.83H10.81H10.80H10.78H10.77H10.76H10.74H10.73H10.72H10.70H10.69H10.68H10.66H10.65H10.64H10.62H10.61H10.60H10.58H10.57H10.55H10.54H10.53H10.51H10.50H10.49H10.47H10.46H10.45H10.43H10.42H10.41H10.39H10.38H10.37H10.35H10.34H10.32H10.31H10.30H10.28H10.27H10.26H10.24H10.23H10.22H10.20H10.19H10.18H10.16H10.15H10.14H10.12H10.11H10.09H10.08H10.07H10.05H10.04H10.03H10.01H10.00H9.99H9.97H9.96H9.95H9.93H9.92H9.91H9.89H9.88C9.58 30.88 9.40 30.84 9.31 30.79C9.28 30.77 9.26 30.75 9.24 30.72C9.23 30.69 9.20 30.62 9.21 30.49C9.21 30.37 9.23 30.32 9.25 30.29C9.26 30.27 9.28 30.25 9.31 30.23C9.40 30.18 9.56 30.15 9.84 30.14C10.61 30.14 11.37 30.14 12.14 30.14C12.65 30.14 13.16 30.14 13.67 30.14C13.67 30.14 13.67 30.14 13.67 30.14L13.68 30.14H13.68H13.68H13.68H13.68H13.69H13.69H13.69H13.69H13.69H13.70H13.70H13.70H13.70H13.70H13.71H13.71H13.71H13.71H13.71H13.72H13.72H13.72H13.72H13.72H13.73H13.73H13.73H13.73H13.73H13.74H13.74H13.74H13.74H13.74H13.75H13.75H13.75H13.75H13.75H13.76H13.76H13.76H13.76H13.76H13.77H13.77H13.77H13.77H13.77H13.78H13.78H13.78H13.78H13.78H13.79H13.79H13.79H13.79H13.79H13.80H13.80H13.80H13.80H13.81H13.81H13.81H13.81H13.81H13.82H13.82H13.82H13.82H13.82H13.83H13.83H13.83H13.83H13.83H13.84H13.84H13.84H13.84H13.84H13.85H13.85H13.85H13.85H13.85H13.86H13.86H13.86H13.86H13.86H13.87H13.87H13.87H13.87H13.88H13.88H13.88H13.88H13.88H13.89H13.89H13.89H13.89H13.89H13.90H13.90H13.90H13.90H13.90H13.91H13.91H13.91H13.91H13.92H13.92H13.92H13.92H13.92H13.93H13.93H13.93H13.93H13.93H13.94H13.94H13.94H13.94H13.95H13.95H13.95H13.95H13.95H13.96H13.96H13.96H13.96H13.96H13.97H13.97H13.97H13.97H13.98H13.98H13.98H13.98H13.98H13.99H13.99H13.99H13.99H14.00H14.00H14.00H14.00H14.00H14.01H14.01H14.01H14.01H14.02H14.02H14.02H14.02H14.02H14.03H14.03H14.03H14.03H14.04H14.04H14.04H14.04H14.04H14.05H14.05H14.05H14.05H14.06H14.06H14.06H14.06H14.07H14.07H14.07H14.07H14.07H14.08H14.08H14.08H14.08H14.09H14.09H14.09H14.09H14.1H14.10H14.10H14.10H14.10H14.11H14.11H14.11H14.11H14.12H14.12H14.12H14.12H14.13H14.13H14.13H14.13H14.14H14.14H14.14H14.14H14.14H14.15H14.15H14.15H14.15H14.16H14.16H14.16H14.16H14.17H14.17H14.17H14.17H14.18H14.18H14.18H14.18H14.19H14.19H14.19H14.19H14.20H14.20H14.20H14.20H14.21H14.21H14.21H14.21H14.22H14.22H14.22H14.22H14.23H14.23H14.23H14.23H14.24H14.24H14.24H14.24H14.25H14.25H14.25H14.25H14.26H14.26H14.26H14.26H14.27H14.27H14.27H14.27H14.28H14.28H14.28H14.28H14.29H14.29H14.29H14.30H14.30H14.30H14.30H14.31H14.31H14.31H14.31H14.32H14.32H14.32H14.32H14.33H14.33H14.33H14.34H14.34H14.34H14.34H14.35H14.35H14.35H14.35H14.36H14.36H14.36H14.37H14.37H14.37H14.37H14.38H14.38H14.38H14.38H14.39H14.39H14.39H14.40H14.40H14.40H14.40H14.41H14.41H14.41H14.42H14.42H14.42H14.42H14.43H14.43H14.43H14.44H14.44H14.44H14.44H14.45H14.45H14.45H14.46H14.46H14.46H14.46H14.47H14.47H14.47H14.48H14.48H14.48H14.49H14.49H14.49H14.49H14.50H14.50H14.50H14.51H14.51H14.51H14.52H14.52H14.52H14.52H14.53H14.53H14.53H14.54H14.54H14.54H14.55H14.55H14.55H14.56H14.56H14.56H14.56H14.57H14.57H14.57H14.58H14.58H14.58H14.59H14.59H14.59H14.60H14.60H14.60H14.61H14.61H14.61H14.62H14.62H14.62H14.62H14.63H14.63H14.63H14.64H14.64H14.64H14.65H14.65H14.65H14.66H14.66H14.66H14.67H14.67H14.67H14.68H14.68H14.68H14.69H14.69H14.69H14.70H14.70H14.70H14.71H14.71H14.71H14.72H14.72H14.72H14.73H14.73H14.73H14.74H14.74H14.75H14.75H14.75H14.76H14.76H14.76H14.77H14.77H14.77H14.78H14.78H14.78H14.79H14.79H14.79H14.80H14.80H14.81H14.81H14.81H14.82H14.82H14.82H14.83H14.83H14.83H14.84H14.84H14.84H14.85H14.85H14.86H14.86H14.86H14.87H14.87H14.87H14.88H14.88H14.89H14.89H14.89H14.90H14.90H14.90H14.91H14.91H14.92H14.92H14.92H14.93H14.93H14.93H14.94H14.94H14.95H14.95H14.95H14.96H14.96H14.97H14.97H14.97H14.98H14.98H14.99H14.99H14.99H15.00H15.00H15.01H15.01H15.01H15.02H15.02H15.03H15.03H15.03H15.04H15.04H15.05H15.05H15.05H15.06H16.25L15.41 29.29C10.29 24.10 5.39 19.14 0.5 14.18V14.18V14.17V14.17V14.17V14.17V14.17V14.17V14.16V14.16V14.16V14.16V14.16V14.16V14.15V14.15V14.15V14.15V14.15V14.15V14.14V14.14V14.14V14.14V14.14V14.14V14.13V14.13V14.13V14.13V14.13V14.13V14.12V14.12V14.12V14.12V14.12V14.12V14.11V14.11V14.11V14.11V14.11V14.11V14.10V14.10V14.10V14.10V14.10V14.10V14.09V14.09V14.09V14.09V14.09V14.09V14.08V14.08V14.08V14.08V14.08V14.08V14.07V14.07V14.07V14.07V14.07V14.07V14.06V14.06V14.06V14.06V14.06V14.06V14.05V14.05V14.05V14.05V14.05V14.05V14.04V14.04V14.04V14.04V14.04V14.04V14.03V14.03V14.03V14.03V14.03V14.03V14.02V14.02V14.02V14.02V14.02V14.02V14.01V14.01V14.01V14.01V14.01V14.01V14.00V14.00V14.00V14.00V14.00V14.00V13.99V13.99V13.99V13.99V13.99V13.99V13.98V13.98V13.98V13.98V13.98V13.98V13.97V13.97V13.97V13.97V13.97V13.97V13.96V13.96V13.96V13.96V13.96V13.96V13.95V13.95V13.95V13.95V13.95V13.95V13.94V13.94V13.94V13.94V13.94V13.94V13.93V13.93V13.93V13.93V13.93V13.93V13.92V13.92V13.92V13.92V13.92V13.92V13.91V13.91V13.91V13.91V13.91V13.91V13.90V13.90V13.90V13.90V13.90V13.90V13.89V13.89V13.89V13.89V13.89V13.89V13.88V13.88V13.88V13.88V13.88V13.88V13.87V13.87V13.87V13.87V13.87V13.87V13.86V13.86V13.86V13.86V13.86V13.86V13.85V13.85V13.85V13.85V13.85V13.85V13.84V13.84V13.84V13.84V13.84V13.84V13.83V13.83V13.83V13.83V13.83V13.83V13.82V13.82V13.82V13.82V13.82V13.82V13.81V13.81V13.81V13.81V13.81V13.81V13.80V13.80V13.80V13.80V13.80V13.80V13.79V13.79V13.79V13.79V13.79V13.79V13.78V13.78V13.78V13.78V13.78V13.78V13.77C0.68 13.65 0.80 13.65 0.88 13.67C1.03 13.70 1.24 13.83 1.53 14.13L17.45 30.31Z" stroke="#000"></path><path d="M28.12 70.35C22.44 67.67 17.72 64.04 15.26 58.15C13.16 53.13 13.50 47.99 15.09 42.84C17.19 36.05 21.09 30.35 26.27 25.54C31.75 20.45 36.50 14.79 40.48 8.46C43.04 4.40 46.58 1.67 51.29 0.82C54.82 0.19 57.98 0.48 60.76 1.64C63.54 2.80 65.96 4.85 68.00 7.78C68.42 8.39 68.83 8.99 69.25 9.60C71.69 13.14 74.15 16.72 77.12 19.92C78.74 21.67 80.45 23.34 82.18 24.99C88.09 30.61 92.60 37.05 94.45 45.06L94.45 45.06C94.74 46.30 94.90 47.56 95.06 48.85C95.13 49.44 95.20 50.03 95.29 50.63C95.17 57.66 91.99 62.99 86.45 67.05L86.45 67.05C85.24 67.93 83.94 68.66 82.61 69.39C82.05 69.70 81.49 70.01 80.93 70.34C80.71 70.46 80.55 70.50 80.45 70.49C80.41 70.49 80.38 70.48 80.36 70.46C80.33 70.44 80.29 70.40 80.24 70.31L80.24 70.31C80.19 70.20 80.17 70.13 80.17 70.09C80.17 70.05 80.18 70.02 80.20 69.99C80.25 69.90 80.39 69.78 80.65 69.66L80.65 69.66C83.35 68.41 85.85 66.84 88.06 64.82C93.99 59.40 95.48 52.66 93.74 45.11C92.15 38.23 88.47 32.53 83.68 27.53C82.70 26.51 81.68 25.51 80.66 24.52C80.30 24.17 79.94 23.82 79.58 23.47C78.22 22.13 76.89 20.78 75.68 19.33L75.68 19.33C73.17 16.31 70.90 13.09 68.62 9.85C68.27 9.34 67.91 8.83 67.55 8.32L67.55 8.32C65.07 4.81 61.85 2.31 57.54 1.54C54.19 0.94 51.15 1.21 48.45 2.35C45.75 3.49 43.43 5.48 41.53 8.27L41.53 8.27C41.41 8.45 41.29 8.62 41.17 8.80C38.20 13.15 35.26 17.45 31.65 21.23L32.01 21.58L31.65 21.23C30.59 22.34 29.50 23.39 28.41 24.44C27.57 25.25 26.73 26.06 25.89 26.91L26.25 27.26L25.89 26.91C21.26 31.59 17.62 36.92 15.70 43.32L15.70 43.32C14.10 48.64 14.18 53.53 15.91 57.79C17.63 62.06 20.98 65.63 25.82 68.36L25.82 68.36C26.56 68.77 27.31 69.15 28.04 69.52C28.16 69.58 28.27 69.64 28.39 69.69L28.39 69.70C28.62 69.81 28.75 69.94 28.79 70.02C28.81 70.06 28.81 70.08 28.81 70.09C28.81 70.10 28.80 70.14 28.76 70.20C28.76 70.21 28.74 70.22 28.69 70.24C28.63 70.27 28.55 70.30 28.46 70.33C28.37 70.35 28.28 70.36 28.21 70.36C28.15 70.36 28.12 70.35 28.12 70.35C28.12 70.35 28.12 70.35 28.12 70.35ZM28.12 70.35C28.12 70.35 28.12 70.35 28.12 70.35L28.12 70.35Z" stroke="#000"></path><path d="M28.36 34.79L28.36 34.79C30.68 31.57 33.41 28.82 36.99 27.10C38.06 26.58 39.22 26.16 40.35 26.00L40.36 26.00C42.63 25.68 44.54 26.23 45.98 27.46C47.42 28.69 48.42 30.64 48.75 33.19C49.42 38.24 48.18 42.97 46.12 47.58L46.12 47.58C43.83 52.72 40.69 57.20 36.15 60.56C34.05 62.12 31.83 63.26 29.23 63.36C27.73 63.42 26.47 63.11 25.42 62.48C24.37 61.85 23.50 60.87 22.81 59.55L22.37 59.78L22.81 59.55C21.82 57.64 21.53 55.57 21.54 53.38L21.54 53.29C21.81 46.41 24.35 40.33 28.36 34.79ZM48.18 35.48H48.33L48.19 34.87C48.15 34.67 48.10 34.40 48.04 34.08C47.88 33.14 47.63 31.77 47.16 30.51L46.7 30.69L47.16 30.51C46.57 28.95 45.58 27.81 44.29 27.17C43.01 26.53 41.49 26.42 39.87 26.80C37.59 27.33 35.60 28.45 33.88 29.96C27.12 35.85 23.27 43.29 22.37 52.21L22.37 52.21C22.14 54.52 22.38 56.85 23.39 59.03L23.39 59.03C24.04 60.43 25.01 61.48 26.22 62.09C27.42 62.70 28.83 62.84 30.33 62.47C31.70 62.14 33.06 61.59 34.28 60.89C37.55 59.03 40.00 56.30 42.07 53.29L42.07 53.29C45.58 48.17 47.83 42.58 48.18 35.48Z" stroke="#000"></path><path d="M87.44 50.86C87.44 50.91 87.45 50.96 87.46 51.01C87.49 51.24 87.52 51.44 87.53 51.64L87.53 51.65C87.54 52.08 87.53 52.50 87.53 52.94C87.53 53.11 87.53 53.28 87.53 53.44V53.90L87.64 53.91C87.61 54.15 87.58 54.40 87.55 54.64C87.46 55.49 87.37 56.31 87.18 57.12L87.18 57.12C86.52 59.92 85.11 61.80 83.28 62.72C81.44 63.65 79.08 63.66 76.43 62.53L76.43 62.53C72.50 60.86 69.55 57.94 67.04 54.50L67.04 54.50C63.33 49.43 60.82 43.85 60.33 37.58L60.33 37.58C60.17 35.52 60.35 33.33 60.87 31.34L60.87 31.34C61.47 29.05 62.73 27.46 64.35 26.61C65.98 25.75 68.05 25.61 70.32 26.34L70.32 26.34C73.42 27.32 75.92 29.25 78.13 31.62L78.13 31.62C83.20 37.08 86.39 43.46 87.44 50.86ZM87.44 50.86L87.93 50.79M87.44 50.86C87.44 50.86 87.44 50.86 87.44 50.86L87.93 50.79M87.93 50.79C86.87 43.28 83.63 36.81 78.50 31.28L88.03 51.63C88.02 51.40 87.99 51.16 87.95 50.93C87.94 50.88 87.94 50.83 87.93 50.79ZM60.67 36.25L60.77 35.76C60.88 35.24 60.97 34.73 61.06 34.22C61.12 33.89 61.18 33.55 61.24 33.21C61.40 32.35 61.60 31.48 61.90 30.64M60.67 36.25L86.28 54.04M60.67 36.25L61 36.32M60.67 36.25L62.37 30.81M61.90 30.64L62.37 30.81M61.90 30.64L62.37 30.81M61.90 30.64C62.49 29.03 63.50 27.83 64.82 27.16C66.13 26.50 67.70 26.39 69.35 26.87L69.35 26.87C70.95 27.34 72.65 28.01 74.00 29.06C82.12 35.37 86.43 43.73 86.78 54.03M62.37 30.81C61.97 31.92 61.76 33.10 61.56 34.29C61.49 34.65 61.43 35.01 61.36 35.37C61.36 35.37 61.36 35.37 61.36 35.37L61.26 35.86L61.32 35.87C61.33 35.88 61.35 35.88 61.37 35.88C61.40 35.89 61.44 35.90 61.47 35.91M86.78 54.03L86.28 54.04M86.78 54.03C86.78 54.03 86.78 54.03 86.78 54.03L86.28 54.04M86.78 54.03C86.82 55.36 86.53 56.72 86.15 57.95M86.28 54.04C86.32 55.29 86.04 56.60 85.67 57.80M86.15 57.95L85.67 57.80M86.15 57.95C85.56 59.87 84.49 61.27 83.03 62.03C81.56 62.79 79.79 62.87 77.87 62.28L77.87 62.28C75.08 61.43 72.78 59.79 70.82 57.77L71.18 57.42M86.15 57.95C86.15 57.95 86.15 57.95 86.15 57.95L85.67 57.80M85.67 57.80L71.18 57.42M71.18 57.42L70.82 57.77C65.10 51.87 61.61 44.89 61.01 36.58L61.01 36.58C61.01 36.49 61.00 36.40 61 36.32M71.18 57.42L61.51 36.54C61.50 36.33 61.48 36.12 61.47 35.91M61.47 35.91L61.25 35.92L60.97 35.93L60.97 35.93C60.98 36.06 60.99 36.19 61 36.32M61.47 35.91L61.38 36.40C61.33 36.39 61.29 36.38 61.26 36.37L61.26 36.37C61.22 36.36 61.19 36.36 61.16 36.35L61 36.32" stroke="#000"></path><path d="M86.92 17.77H86.92C85.91 17.77 84.90 17.77 83.80 17.77C83.29 17.77 82.76 17.77 82.20 17.77L82.20 17.77H81.98C81.98 17.77 81.98 17.77 81.98 17.77V17.27V17.27L81.62 16.93C81.78 16.76 81.91 16.62 82.03 16.49C82.24 16.26 82.40 16.09 82.56 15.92L82.56 15.92C85.51 12.93 88.45 9.93 91.40 6.93C92.88 5.42 94.37 3.91 95.85 2.40C95.91 2.34 95.98 2.28 96.03 2.24C96.05 2.22 96.07 2.21 96.08 2.20C96.12 2.17 96.15 2.15 96.17 2.12C96.20 2.10 96.21 2.09 96.22 2.08C96.25 1.90 96.27 1.73 96.27 1.58C96.27 1.51 96.26 1.45 96.26 1.41C96.24 1.41 96.22 1.41 96.20 1.41C96.02 1.42 95.83 1.45 95.70 1.50L95.70 1.50C95.70 1.50 95.69 1.50 95.66 1.52C95.63 1.55 95.59 1.58 95.55 1.63C95.51 1.67 95.47 1.72 95.43 1.77C95.42 1.78 95.41 1.79 95.40 1.81C95.34 1.87 95.28 1.95 95.21 2.02C90.83 6.47 86.46 10.92 82.08 15.37L82.07 15.39L82.06 15.39C81.90 15.55 81.73 15.72 81.52 15.91C81.39 16.03 81.26 16.16 81.10 16.30L80.26 17.11V15.94C80.26 15.31 80.26 14.71 80.26 14.13C80.26 13.04 80.25 12.01 80.26 10.99M86.92 17.77L80.76 10.99M86.92 17.77C86.96 17.77 86.99 17.77 87.02 17.77C87.14 17.77 87.25 17.77 87.36 17.78C87.49 17.79 87.58 17.80 87.64 17.83C87.69 17.85 87.71 17.87 87.72 17.88C87.73 17.90 87.76 17.96 87.77 18.10M86.92 17.77V17.27C86.95 17.27 86.98 17.27 87.01 17.27C87.60 17.27 88.25 17.27 88.27 18.09M80.26 10.99C80.26 10.99 80.26 10.99 80.26 10.99L80.76 10.99M80.26 10.99C80.26 10.99 80.26 10.99 80.26 10.99L80.76 10.99M80.26 10.99C80.26 10.63 80.25 10.39 80.18 10.24C80.15 10.18 80.13 10.16 80.10 10.14C80.08 10.13 80.01 10.10 79.86 10.10M80.76 10.99C80.76 10.32 80.73 9.60 79.86 9.60M79.86 10.10C79.86 10.10 79.86 10.10 79.86 10.10L79.86 9.60M79.86 10.10C79.72 10.10 79.67 10.12 79.65 10.14C79.64 10.15 79.61 10.16 79.59 10.22C79.53 10.36 79.52 10.59 79.52 10.93M79.86 10.10C79.86 10.10 79.86 10.10 79.86 10.10V9.60M79.86 9.60L79.52 10.93M79.52 10.93C79.52 10.93 79.52 10.93 79.52 10.93L79.02 10.93H79.52C79.52 10.93 79.52 10.93 79.52 10.93ZM79.52 10.93C79.52 11.43 79.52 11.93 79.53 12.44C79.53 14.17 79.54 15.91 79.51 17.65L79.51 17.65C79.50 18.10 79.60 18.28 79.68 18.36C79.76 18.44 79.95 18.53 80.40 18.52C81.87 18.50 83.35 18.51 84.82 18.51C85.51 18.51 86.21 18.51 86.90 18.51H86.90C87.26 18.51 87.49 18.50 87.64 18.44C87.69 18.42 87.71 18.39 87.72 18.37C87.74 18.34 87.77 18.27 87.77 18.10M79.52 10.93L79.01 17.64C78.99 18.66 79.42 19.04 80.40 19.02C81.87 19.00 83.34 19.01 84.81 19.01C85.51 19.01 86.20 19.01 86.90 19.01C87.56 19.01 88.29 19.01 88.27 18.09M87.77 18.10C87.77 18.10 87.77 18.10 87.77 18.10L88.27 18.09M87.77 18.10C87.77 18.10 87.77 18.10 87.77 18.10L88.27 18.09M80.76 15.94L80.41 15.58C80.54 15.45 80.66 15.35 80.76 15.25C80.76 15.48 80.76 15.71 80.76 15.94ZM80.76 15.94H81.26C81.26 15.78 81.26 15.62 81.26 15.47C81.23 15.49 81.21 15.52 81.18 15.54C81.06 15.66 80.92 15.79 80.76 15.94ZM95.54 1.02C95.89 0.91 96.52 0.84 96.64 1.01C96.83 1.31 96.77 1.82 96.70 2.21L95.54 1.02Z" stroke="#000"></path><path d="M28.85 10.79C28.85 10.79 28.84 10.83 28.85 10.96C28.85 11.01 28.86 11.07 28.86 11.13C28.87 11.15 28.87 11.17 28.87 11.19C28.88 11.28 28.89 11.38 28.89 11.49V11.49V11.50V11.51V11.52V11.53V11.54V11.54V11.55V11.56V11.57V11.58V11.58V11.59V11.60V11.61V11.62V11.63V11.63V11.64V11.65V11.66V11.67V11.67V11.68V11.69V11.70V11.71V11.72V11.72V11.73V11.74V11.75V11.76V11.77V11.77V11.78V11.79V11.80V11.81V11.81V11.82V11.83V11.84V11.85V11.86V11.86V11.87V11.88V11.89V11.90V11.90V11.91V11.92V11.93V11.94V11.95V11.95V11.96V11.97V11.98V11.99V12.00V12.00V12.01V12.02V12.03V12.04V12.04V12.05V12.06V12.07V12.08V12.09V12.09V12.10V12.11V12.12V12.13V12.14V12.14V12.15V12.16V12.17V12.18V12.18V12.19V12.20V12.21V12.22V12.23V12.23V12.24V12.25V12.26V12.27V12.28V12.28V12.29V12.30V12.31V12.32V12.33V12.33V12.34V12.35V12.36V12.37V12.37V12.38V12.39V12.40V12.41V12.42V12.42V12.43V12.44V12.45V12.46V12.47V12.47V12.48V12.49V12.50V12.51V12.52V12.52V12.53V12.54V12.55V12.56V12.57V12.57V12.58V12.59V12.60V12.61V12.62V12.62V12.63V12.64V12.65V12.66V12.66V12.67V12.68V12.69V12.70V12.71V12.71V12.72V12.73V12.74V12.75V12.76V12.76V12.77V12.78V12.79V12.80V12.81V12.81V12.82V12.83V12.84V12.85V12.86V12.87V12.87V12.88V12.89V12.90V12.91V12.92V12.92V12.93V12.94V12.95V12.96V12.97V12.97V12.98V12.99V13.00V13.01V13.02V13.02V13.03V13.04V13.05V13.06V13.07V13.07V13.08V13.09V13.10V13.11V13.12V13.12V13.13V13.14V13.15V13.16V13.17V13.18V13.18V13.19V13.20V13.21V13.22V13.23V13.23V13.24V13.25V13.26V13.27V13.28V13.29V13.29V13.30V13.31V13.32V13.33V13.34V13.34V13.35V13.36V13.37V13.38V13.39V13.40V13.40V13.41V13.42V13.43V13.44V13.45V13.45V13.46V13.47V13.48V13.49V13.50V13.51V13.51V13.52V13.53V13.54V13.55V13.56V13.57V13.57V13.58V13.59V13.60V13.61V13.62V13.63V13.63V13.64V13.65V13.66V13.67V13.68V13.69V13.69V13.70V13.71V13.72V13.73V13.74V13.75V13.75V13.76V13.77V13.78V13.79V13.80V13.81V13.81V13.82V13.83V13.84V13.85V13.86V13.87V13.87V13.88V13.89V13.90V13.91V13.92V13.93V13.93V13.94V13.95V13.96V13.97V13.98V13.99V14.00V14.00V14.01V14.02V14.03V14.04V14.05V14.06V14.06V14.07V14.08V14.09V14.10V14.11V14.12V14.13V14.13V14.14V14.15V14.16V14.17V14.18V14.19V14.20V14.20V14.21V14.22V14.23V14.24V14.25V14.26V14.27V14.27V14.28V14.29V14.30V14.31V14.32V14.33V14.34V14.34V14.35V14.36V14.37V14.38V14.39V14.40V14.41V14.42V14.42V14.43V14.44V14.45V14.46V14.47V14.48V14.49V14.50V14.50V14.51V14.52V14.53V14.54V14.55V14.56V14.57V14.58V14.58V14.59V14.60V14.61V14.62V14.63V14.64V14.65V14.66V14.66V14.67V14.68V14.69V14.70V14.71V14.72V14.73V14.74V14.74V14.75V14.76V14.77V14.78V14.79V14.80V14.81V14.82V14.83V14.83V14.84V14.85V14.86V14.87V14.88V14.89V14.90V14.91V14.92V14.93V14.93V14.94V14.95V14.96V14.97V14.98V14.99V15.00V15.01V15.02V15.03V15.03V15.04V15.05V15.06V15.07V15.08V15.09V15.10V15.11V15.12V15.13V15.13V15.14V15.15V15.16V15.17V15.18V15.19V15.20V15.21V15.22V15.23V15.24V15.24V15.25V15.26V15.27V15.28V15.29V15.30V15.31V15.32V15.33V15.34V15.35V15.36V15.36V15.37V15.38V15.39V15.40V15.41V15.42V15.43V15.44V15.45V15.46V15.47V15.48V15.49V15.5V15.50V15.51V15.52V15.53V15.54V15.55V15.56V15.57V15.58V15.59V15.60V15.61V15.62V15.63V15.64V15.65V15.65V15.66V15.67V15.68V15.69V15.70V15.71V15.72V15.73V15.74V15.75V15.76V15.77V15.78V15.79V15.80V15.81V15.82V15.82V15.83V15.84V15.85V15.86V15.87V15.88V15.89V15.90V15.91V15.92H28.41L28.05 16.29C27.92 16.17 27.81 16.07 27.70 15.97C27.47 15.76 27.28 15.59 27.11 15.41C24.91 13.17 22.70 10.93 20.50 8.70C18.30 6.46 16.09 4.22 13.89 1.98C13.82 1.91 13.75 1.83 13.70 1.77C13.69 1.76 13.68 1.75 13.68 1.74C13.63 1.68 13.59 1.64 13.55 1.59C13.45 1.49 13.41 1.47 13.41 1.47C13.41 1.47 13.41 1.47 13.41 1.47M28.85 10.79L13.42 1.47C13.42 1.47 13.41 1.47 13.41 1.47M28.85 10.79C28.93 10.66 29.03 10.54 29.18 10.40C29.22 10.36 29.26 10.32 29.31 10.28C29.36 10.32 29.40 10.36 29.44 10.40C29.50 10.47 29.55 10.53 29.57 10.56C29.58 10.57 29.58 10.58 29.58 10.59C29.64 12.06 29.63 13.53 29.63 15.02C29.62 15.37 29.62 15.73 29.62 16.08M28.85 10.79L27.21 19.02L27.21 18.52C27.36 18.52 27.50 18.52 27.63 18.52C28.24 18.53 28.68 18.53 29.01 18.50C29.42 18.47 29.50 18.40 29.52 18.38C29.55 18.35 29.60 18.25 29.62 17.83C29.63 17.59 29.63 17.32 29.62 16.98C29.62 16.72 29.62 16.43 29.62 16.08M13.41 1.47C13.29 1.44 13.13 1.42 12.98 1.43C12.91 1.43 12.85 1.44 12.81 1.46C12.81 1.46 12.81 1.46 12.81 1.46C12.80 1.48 12.80 1.51 12.80 1.54C12.80 1.68 12.82 1.85 12.85 1.97C12.85 1.98 12.87 2.01 12.94 2.07C12.98 2.11 13.02 2.15 13.07 2.19C13.08 2.20 13.08 2.20 13.09 2.21C13.14 2.26 13.21 2.32 13.28 2.38L13.28 2.38C16.22 5.38 19.17 8.38 22.11 11.37C23.60 12.88 25.08 14.39 26.57 15.90L26.57 15.90C26.75 16.09 26.93 16.28 27.18 16.54C27.29 16.66 27.41 16.79 27.55 16.93L28.36 17.78H27.19C26.55 17.78 25.95 17.78 25.38 17.78C24.28 17.77 23.28 17.77 22.26 17.78L22.26 17.78C22.22 17.78 22.18 17.78 22.15 17.78C22.02 17.78 21.91 17.78 21.80 17.79C21.66 17.79 21.56 17.81 21.50 17.84C21.44 17.86 21.43 17.88 21.42 17.89C21.41 17.91 21.37 17.98 21.38 18.15L13.41 1.47ZM29.62 16.08C29.62 16.08 29.62 16.08 29.62 16.08L30.12 16.08L29.62 16.08ZM12.82 1.39C12.82 1.39 12.82 1.39 12.82 1.39C12.82 1.39 12.82 1.39 12.82 1.39ZM22.31 19.02L22.31 18.52C22.26 18.52 22.21 18.52 22.16 18.52C22.05 18.52 21.95 18.52 21.84 18.51C21.70 18.51 21.60 18.49 21.53 18.46C21.47 18.44 21.45 18.42 21.43 18.40C21.42 18.38 21.38 18.31 21.38 18.15L22.31 19.02Z" stroke="#000"></path><path d="M43.89 29.77C43.94 29.81 43.98 29.84 44.00 29.86C44.00 29.88 43.99 29.91 43.99 29.94C43.97 30.00 43.95 30.07 43.92 30.14C43.89 30.20 43.86 30.26 43.83 30.29C43.82 30.30 43.81 30.31 43.81 30.32C42.79 30.78 41.72 31.18 40.65 31.48C40.64 31.48 40.63 31.48 40.61 31.48C40.56 31.47 40.50 31.45 40.43 31.42C40.36 31.39 40.30 31.35 40.25 31.32C40.24 31.30 40.22 31.29 40.21 31.28C40.22 31.24 40.22 31.19 40.24 31.12C40.26 31.06 40.28 31.00 40.30 30.96C41.13 30.55 41.99 30.20 42.90 29.82C43.13 29.73 43.36 29.63 43.59 29.54C43.61 29.55 43.63 29.56 43.64 29.58C43.67 29.60 43.70 29.62 43.73 29.64C43.79 29.69 43.84 29.73 43.89 29.77Z" stroke="#000"></path><path d="M29.99 44.09C30.19 44.16 30.29 44.23 30.32 44.28C30.34 44.30 30.40 44.38 30.32 44.64L30.32 44.64C30.25 44.85 30.19 45.07 30.12 45.28C29.89 46.05 29.67 46.79 29.36 47.49C29.36 47.49 29.36 47.49 29.36 47.49C29.36 47.49 29.33 47.54 29.16 47.63C29.10 47.66 29.04 47.69 28.96 47.72C28.96 47.72 28.96 47.72 28.96 47.72C28.91 47.65 28.86 47.59 28.82 47.53C28.77 47.45 28.74 47.40 28.72 47.36C28.95 46.36 29.30 45.37 29.68 44.36M29.99 44.09L29.68 44.36L29.68 44.36M29.99 44.09C29.98 44.10 29.97 44.11 29.96 44.12C29.91 44.16 29.87 44.19 29.83 44.22C29.77 44.26 29.74 44.30 29.71 44.33C29.69 44.35 29.68 44.36 29.68 44.36C29.68 44.36 29.68 44.36 29.68 44.36M29.99 44.09L29.68 44.36M28.71 47.34C28.71 47.34 28.71 47.34 28.71 47.34L28.71 47.34Z" stroke="#000"></path><path d="M38.18 32.67C37.93 32.48 37.34 32.41 37.15 32.57C36.27 33.33 35.45 34.17 34.68 35.04L38.18 32.67ZM38.18 32.67C38.37 32.81 38.48 33.43 38.34 33.59L38.18 32.67ZM35.79 35.48C35.66 35.61 35.52 35.74 35.39 35.87C35.39 35.87 35.39 35.87 35.38 35.87L35.38 35.87C35.36 35.87 35.34 35.87 35.31 35.88C35.31 35.88 35.31 35.88 35.31 35.88C35.31 35.88 35.31 35.88 35.30 35.88L35.30 35.87C35.29 35.87 35.29 35.87 35.28 35.87C35.23 35.84 35.19 35.82 35.15 35.80C35.13 35.79 35.12 35.78 35.11 35.78C35.08 35.69 35.06 35.58 35.06 35.48C35.06 35.42 35.07 35.37 35.07 35.35C35.82 34.51 36.60 33.71 37.44 32.98C37.47 32.98 37.53 32.98 37.59 32.99C37.66 32.99 37.73 33.01 37.78 33.03C37.81 33.03 37.83 33.04 37.85 33.05C37.86 33.09 37.88 33.15 37.89 33.21C37.90 33.26 37.90 33.30 37.90 33.33C37.23 34.07 36.52 34.77 35.79 35.48ZM35.08 35.33C35.08 35.33 35.08 35.33 35.08 35.34C35.08 35.33 35.08 35.33 35.08 35.33ZM35.05 35.37C35.05 35.37 35.05 35.37 35.05 35.38L35.05 35.37ZM37.41 32.99C37.41 32.99 37.42 32.99 37.42 32.99C37.42 32.99 37.41 32.99 37.41 32.99Z" stroke="#000"></path><path d="M30.80 59.12C30.54 58.78 30.31 58.43 30.09 58.09C30.06 58.03 30.02 57.98 29.99 57.92C29.80 57.64 29.63 57.36 29.44 57.09C29.30 56.90 29.14 56.73 28.98 56.56C28.98 56.56 28.98 56.56 28.98 56.56C28.75 56.63 28.65 56.72 28.62 56.77C28.60 56.79 28.56 56.86 28.65 57.04C29.13 57.97 29.71 58.86 30.37 59.66C30.38 59.67 30.39 59.68 30.42 59.69C30.48 59.71 30.57 59.74 30.66 59.75C30.75 59.76 30.84 59.76 30.90 59.76C30.96 59.75 30.98 59.74 30.99 59.74C31.06 59.69 31.08 59.66 31.08 59.66L31.08 59.66C31.08 59.66 31.08 59.66 31.08 59.65C31.08 59.65 31.08 59.63 31.08 59.62C31.06 59.52 30.98 59.35 30.80 59.12ZM30.80 59.12C30.80 59.12 30.80 59.12 30.80 59.12L31.20 58.81L30.80 59.12C30.80 59.12 30.80 59.12 30.80 59.12Z" stroke="#000"></path><path d="M31.45 41.66C31.46 41.66 31.46 41.65 31.47 41.65C31.52 41.63 31.55 41.61 31.59 41.59C31.67 41.54 31.70 41.51 31.70 41.51C31.70 41.51 31.70 41.51 31.70 41.51C32.28 40.59 32.84 39.68 33.30 38.73C33.30 38.73 33.30 38.71 33.30 38.70C33.30 38.65 33.29 38.58 33.27 38.51C33.26 38.46 33.24 38.41 33.22 38.38C33.21 38.38 33.19 38.37 33.17 38.37C33.10 38.36 33.02 38.36 32.94 38.37C32.87 38.38 32.81 38.39 32.78 38.40C32.14 39.32 31.57 40.29 31.09 41.29L31.45 41.66ZM31.45 41.66C31.23 41.60 31.11 41.53 31.07 41.48C31.05 41.46 31.05 41.45 31.05 41.44C31.05 41.43 31.05 41.38 31.09 41.29L31.45 41.66ZM32.75 38.41C32.75 38.41 32.75 38.41 32.75 38.41C32.75 38.41 32.75 38.41 32.75 38.41Z" stroke="#000"></path><path d="M28.74 51.70C28.74 51.71 28.74 51.73 28.74 51.74H28.69V52.24C28.69 52.41 28.70 52.60 28.71 52.78C28.72 52.89 28.72 52.98 28.72 53.06C28.73 53.31 28.72 53.52 28.67 53.69C28.67 53.70 28.66 53.74 28.62 53.80C28.58 53.85 28.53 53.91 28.48 53.96C28.43 54.01 28.38 54.05 28.35 54.07C28.35 54.07 28.35 54.07 28.35 54.07C28.30 54.04 28.24 54.00 28.18 53.95C28.12 53.90 28.08 53.85 28.05 53.81C28.05 53.80 28.04 53.79 28.04 53.79C27.97 52.76 27.99 51.72 28.11 50.70C28.13 50.67 28.17 50.64 28.24 50.59C28.29 50.55 28.35 50.51 28.41 50.47C28.46 50.52 28.51 50.57 28.55 50.61C28.69 50.76 28.74 50.84 28.75 50.89C28.79 51.04 28.79 51.21 28.77 51.45C28.76 51.52 28.75 51.60 28.74 51.70ZM28.09 50.72C28.09 50.72 28.09 50.72 28.09 50.71C28.09 50.72 28.09 50.72 28.09 50.72ZM28.31 54.09C28.31 54.09 28.31 54.09 28.31 54.09L28.31 54.09Z" stroke="#000"></path><path d="M68.45 31.47L68.45 31.47C67.39 31.17 66.35 30.79 65.36 30.33C65.36 30.33 65.35 30.32 65.32 30.29C65.29 30.25 65.25 30.20 65.22 30.13C65.18 30.07 65.16 30.00 65.15 29.95C65.14 29.93 65.14 29.91 65.14 29.90C65.16 29.87 65.20 29.83 65.27 29.77C65.32 29.73 65.38 29.69 65.44 29.64C65.46 29.62 65.49 29.60 65.52 29.57C65.54 29.56 65.56 29.55 65.57 29.53C65.83 29.64 66.08 29.74 66.32 29.84C67.21 30.21 68.02 30.54 68.81 30.94C68.83 30.98 68.85 31.04 68.87 31.12C68.89 31.20 68.90 31.27 68.90 31.33C68.90 31.33 68.90 31.34 68.90 31.34C68.86 31.37 68.80 31.39 68.73 31.42C68.66 31.44 68.59 31.46 68.53 31.46C68.48 31.47 68.46 31.47 68.45 31.47C68.45 31.47 68.45 31.47 68.45 31.47Z" stroke="#000"></path><path d="M80.27 46.69C80.36 46.94 80.45 47.21 80.54 47.48C80.53 47.49 80.53 47.49 80.52 47.50C80.51 47.52 80.50 47.54 80.48 47.56C80.44 47.62 80.40 47.67 80.36 47.71C80.33 47.76 80.30 47.79 80.28 47.81C80.26 47.81 80.23 47.80 80.20 47.80C80.13 47.78 80.06 47.76 79.99 47.73C79.92 47.70 79.87 47.67 79.84 47.64C79.83 47.64 79.83 47.63 79.82 47.63C79.41 46.63 79.07 45.60 78.83 44.55C78.83 44.54 78.83 44.54 78.84 44.53C78.85 44.49 78.87 44.43 78.91 44.36C78.95 44.30 79.00 44.24 79.04 44.19C79.06 44.18 79.07 44.16 79.08 44.15C79.12 44.16 79.18 44.18 79.23 44.20C79.30 44.23 79.36 44.26 79.40 44.28C79.40 44.29 79.40 44.29 79.41 44.29C79.73 45.05 79.99 45.83 80.27 46.69ZM80.25 47.83C80.25 47.83 80.25 47.83 80.25 47.83C80.25 47.83 80.25 47.83 80.25 47.83ZM79.39 44.24L79.39 44.24L79.39 44.24ZM78.83 44.56C78.83 44.56 78.83 44.56 78.83 44.56C78.83 44.56 78.83 44.56 78.83 44.56Z" stroke="#000"></path><path d="M74.08 35.72C74.07 35.74 74.06 35.75 74.05 35.76C73.96 35.78 73.86 35.79 73.75 35.79C73.69 35.79 73.65 35.78 73.62 35.77C73.61 35.77 73.61 35.77 73.61 35.77C72.79 35.04 72.00 34.27 71.29 33.44C71.29 33.44 71.29 33.44 71.29 33.43C71.28 33.39 71.28 33.34 71.28 33.27C71.28 33.20 71.29 33.13 71.31 33.08C71.31 33.05 71.32 33.03 71.33 33.02C71.37 33.00 71.42 32.98 71.48 32.96C71.52 32.95 71.55 32.95 71.58 32.94C72.37 33.66 73.11 34.42 73.86 35.20C73.96 35.30 74.06 35.40 74.15 35.50C74.15 35.50 74.15 35.50 74.15 35.50L74.16 35.50C74.16 35.52 74.16 35.54 74.16 35.57C74.16 35.57 74.16 35.57 74.16 35.58L74.16 35.58C74.15 35.58 74.15 35.59 74.15 35.60C74.12 35.65 74.10 35.69 74.08 35.72ZM71.30 33.45C71.30 33.46 71.30 33.46 71.30 33.46L71.30 33.45Z" stroke="#000"></path><path d="M80.99 56.95C81.04 56.72 80.73 56.26 80.48 56.16L80.99 56.95ZM80.99 56.95L80.50 56.84C80.50 56.84 80.50 56.84 80.50 56.84L80.99 56.95ZM80.49 56.90C80.20 58.13 79.53 59.14 78.51 59.91C78.50 59.91 78.50 59.91 78.50 59.91C78.49 59.91 78.47 59.92 78.44 59.92C78.43 59.92 78.42 59.92 78.41 59.92C78.27 59.90 78.17 59.82 78.11 59.73C78.06 59.63 78.05 59.53 78.11 59.43C78.69 58.49 79.29 57.57 79.94 56.70C79.95 56.69 79.95 56.69 79.96 56.69C79.99 56.67 80.04 56.66 80.09 56.64C80.15 56.63 80.20 56.63 80.25 56.63C80.27 56.63 80.28 56.63 80.29 56.63C80.30 56.63 80.31 56.64 80.32 56.66C80.36 56.69 80.39 56.73 80.43 56.78C80.46 56.83 80.48 56.87 80.49 56.90Z" stroke="#000"></path><path d="M77.80 40.69C77.92 40.87 78.04 41.05 78.15 41.23C78.12 41.27 78.10 41.31 78.07 41.34C78.03 41.39 78.00 41.43 77.98 41.46C77.90 41.55 77.87 41.58 77.85 41.59C77.85 41.59 77.85 41.60 77.84 41.60C77.83 41.60 77.81 41.60 77.78 41.60C77.73 41.59 77.67 41.59 77.62 41.57C77.56 41.56 77.51 41.54 77.48 41.52C77.48 41.52 77.48 41.52 77.48 41.52C76.87 40.62 76.31 39.67 75.82 38.70C75.82 38.70 75.82 38.70 75.82 38.69C75.82 38.66 75.83 38.61 75.84 38.55C75.86 38.49 75.88 38.44 75.90 38.40C75.91 38.39 75.91 38.38 75.92 38.37C75.93 38.36 75.94 38.36 75.96 38.35C76.02 38.33 76.08 38.32 76.15 38.31C76.18 38.31 76.20 38.31 76.22 38.31C76.76 39.07 77.27 39.86 77.80 40.69ZM77.47 41.51C77.47 41.51 77.47 41.51 77.47 41.51L77.47 41.51ZM75.82 38.71C75.82 38.72 75.82 38.72 75.82 38.72L75.82 38.71Z" stroke="#000"></path><path d="M79.99 53.81L80.48 53.69C80.43 53.49 80.42 53.27 80.43 52.98C80.43 52.89 80.43 52.78 80.44 52.66C80.45 52.46 80.46 52.24 80.46 52.04V51.83L80.44 51.81C80.43 51.77 80.43 51.72 80.42 51.68C80.42 51.66 80.42 51.65 80.41 51.63C80.40 51.54 80.39 51.46 80.39 51.37C80.37 51.17 80.37 51.01 80.40 50.88L80.40 50.88L80.40 50.87C80.42 50.78 80.49 50.63 80.59 50.50C80.62 50.45 80.66 50.42 80.68 50.39C80.74 50.41 80.80 50.45 80.87 50.49C80.94 50.54 80.99 50.58 81.02 50.62C81.13 51.69 81.15 52.79 81.10 53.87C81.07 53.91 81.03 53.95 80.97 53.99C80.92 54.03 80.87 54.06 80.84 54.08C80.79 54.06 80.73 54.01 80.65 53.94C80.54 53.83 80.49 53.73 80.48 53.69L79.99 53.81ZM79.99 53.81C80.07 54.14 80.47 54.53 80.79 54.59L79.96 52.04C79.96 52.24 79.95 52.43 79.94 52.62C79.92 53.04 79.90 53.44 79.99 53.81ZM80.72 50.36C80.72 50.36 80.72 50.36 80.72 50.36C80.72 50.36 80.72 50.36 80.72 50.36ZM80.63 50.38C80.63 50.38 80.63 50.38 80.63 50.38C80.63 50.38 80.63 50.38 80.63 50.38Z" stroke="#000"></path></svg>